<?xml version="1.0" standalone="no"?> <!DOCTYPE svg PUBLIC "-//W3C//DTD SVG 1.0//EN" "http://www.w3.org/TR/2001/REC-SVG-20010904/DTD/svg10.dtd" > <svg xmlns="http://www.w3.org/2000/svg" width="100%" height="100%">
<defs >
<font id="signpainterhousescript" horiz-adv-x="312" ><font-face
    font-family="SignPainter"
    units-per-em="1000"
    panose-1="2 0 6 6 7 0 0 2 0 4"
    ascent="0"
    descent="0"
    alphabetic="0" />
<missing-glyph horiz-adv-x="500" />
<glyph unicode=" " glyph-name="space" horiz-adv-x="220" />
<glyph unicode="!" glyph-name="exclam" horiz-adv-x="317" d="M356 615Q328 574 297 519T236 407T181 295T141 200Q124 155 128 129T144 91Q150 85 153 86T161 95Q180 137 204 185T254 283T305 378T351 462Q382 518 386 555T381 613Q376 624 369 624Q362 624
356 615ZM131 52Q121 73 103 80T74 75Q62 62 60 42T69 2Q80 -15 97 -19T124 -12Q132 -1 135 17T131 52Z" />
<glyph unicode="&quot;" glyph-name="quotedbl" horiz-adv-x="318" d="M191 433Q200 445 211 462T235 499T257 536T276 568Q284 583 288 599T284 631Q280 638 275 639T261 630Q249 615 234 590T205 536T179 480T160 433Q155 418 167 417Q172 416 177 419T191 433ZM239
398Q250 409 266 425T298 460T329 497T353 528Q363 542 369 558T373 591Q371 599 363 600T347 594Q333 580 314 556T276 504T239 450T211 405Q206 397 206 394T213 385Q216 383 223 386T239 398Z" />
<glyph unicode="#" glyph-name="numbersign" horiz-adv-x="510" d="M217 347Q197 309 178 271T144 198Q117 195 99 192Q60 186 43 177T18 157Q9 145 26 146Q51 148 75 149T124 153Q119 142 116 133T109 115Q95 77 95 57T101 28Q109 15 115 28Q131 62 146 94T177
156Q200 157 223 157T270 158Q262 142 257 128T246 103Q232 66 232 45T236 16Q244 4 250 16Q267 53 285 88T323 159H355Q389 159 419 166T467 190Q480 203 458 205Q437 207 409 207T349 207Q370 245 390 281T428 349H442Q477 349 507 355T555 379Q567 391 546 394Q528
396 505 397T455 398Q460 409 465 418T476 438Q492 470 501 500T505 548Q503 557 497 557Q492 557 486 549Q469 526 445 487T394 398Q346 398 301 395Q306 405 310 414T319 433Q334 466 343 497T346 546Q343 554 338 554T327 544Q312 520 289 480T240 392Q207 389
187 386Q148 380 131 372T105 354Q100 349 102 345T113 341Q166 346 217 347ZM367 349Q347 313 329 277T293 206Q269 205 246 205T200 202Q221 242 240 278T277 349H367Z" />
<glyph unicode="$" glyph-name="dollar" horiz-adv-x="351" d="M290 499Q278 501 265 500T238 494Q213 483 188 466T141 425T106 374T92 313Q92 289 108 270T146 236T191 209T226 186Q234 180 236 172T230 155Q224 149 214 146T191 143Q175 144 163 149T140 161T119
177T99 194Q83 206 66 210T35 211Q20 208 29 195Q61 150 99 128Q94 117 91 107T83 87Q71 55 72 38T79 13Q86 3 93 16Q104 39 115 62T140 111Q178 100 210 108T260 136Q282 159 286 184T268 226Q255 236 237 246T201 267T172 290T161 318Q162 348 182 374T228 420T277
448T307 451Q313 446 312 436T306 414T293 389T282 364Q269 332 274 312T298 281Q309 274 312 276T320 287Q328 306 338 325T356 363T367 398T364 433Q355 457 334 475Q340 486 344 495T354 514Q369 546 372 569T369 603Q360 619 350 601Q321 554 290 499Z" />
<glyph unicode="%" glyph-name="percent" horiz-adv-x="596" d="M478 469Q436 422 390 368T302 262T225 166T173 93Q154 63 150 41T150 3Q153 -5 157 -5T167 1Q190 34 220 73T283 152T350 233T417 310T477 379T525 435Q551 465 565 493T575 548Q573 559 568 559T548
544Q531 525 504 516T447 509T391 524T346 563Q334 581 323 586T294 591Q258 590 223 562T165 494Q151 471 143 447T131 401T132 357T148 318Q171 286 197 280T245 280Q270 287 293 309T335 359T366 419T381 476Q382 481 382 485Q382 490 382 495Q402 481 427 474T478
469ZM453 -15Q478 -8 500 14T540 66T569 127T582 185Q583 206 581 219T573 240T560 255T546 271Q534 288 522 293T492 297Q457 295 424 266T367 195Q341 149 335 102T354 20Q366 4 378 -4T404 -16T429 -19T453 -15ZM327 542Q333 536 333 521Q333 507 329 487T314
443T290 394Q261 345 232 327T188 321Q181 327 180 342T182 376T194 418T215 460Q228 482 244 500T276 530T305 545T327 542ZM526 248Q531 243 532 229T529 194T516 150T494 100Q467 49 438 31T393 24Q386 30 385 44T386 78T397 120T417 164Q430 186 446 204T477
235T506 251T526 248Z" />
<glyph unicode="&amp;" glyph-name="ampersand" horiz-adv-x="523" d="M337 142Q320 105 297 79T248 35T199 11T156 4Q123 6 106 27T89 79Q90 115 112 149T171 210T258 255T363 278Q371 279 374 281T374 292Q372 298 367 305T353 319T331 330T300 334Q271 333
250 341T227 379Q225 404 238 429T272 477T320 518T370 549T414 564T441 561Q448 555 447 546T439 525T425 496T409 459Q395 421 404 397T431 363Q447 355 452 368Q459 387 470 414T493 465Q511 503 507 529T471 583Q437 612 403 611T330 598Q305 590 274 571T216
524T172 463T156 392Q158 360 174 341T215 314Q156 297 112 259T47 174T31 80T78 -3Q114 -34 154 -41T232 -38T303 -6T358 45Q382 77 389 104T392 153Q417 158 442 160T493 159Q508 158 503 175Q492 198 471 211T413 223Q390 221 364 216T311 205T258 195T208 190Q191
190 198 174Q220 127 291 134Q302 135 313 137T337 142Z" />
<glyph unicode="&apos;" glyph-name="quotesingle" horiz-adv-x="241" d="M190 436Q200 448 212 466T237 503T262 542T282 575Q290 589 294 605T293 636Q290 644 284 645T268 636Q256 621 241 596T210 542T182 486T160 439Q155 423 164 422Q169 421 175 423T190 436Z" />
<glyph unicode="(" glyph-name="parenleft" horiz-adv-x="228" d="M346 643Q258 588 196 511T98 347T51 168T54 -9Q58 -31 66 -44T82 -63Q86 -65 90 -65T93 -57Q86 35 98 118T137 274T204 407T296 513Q337 549 353 581T365 636Q362 653 346 643Z" />
<glyph unicode=")" glyph-name="parenright" horiz-adv-x="245" d="M279 633Q275 652 261 641Q242 627 231 594T221 507Q224 443 209 371T162 225T78 82T-45 -49Q-50 -53 -49 -56T-42 -60Q-27 -60 -7 -53T37 -28Q94 14 147 84T237 243T287 431T279 633Z" />
<glyph unicode="*" glyph-name="asterisk" horiz-adv-x="366" d="M429 531Q432 546 415 543Q395 539 371 534T323 523Q334 544 342 559T355 582Q368 608 365 625T352 649Q347 652 344 652T337 647Q326 629 308 598T272 532Q265 543 260 550T250 564Q226 604 192
601Q184 600 183 595T184 584Q195 564 208 543T234 501Q220 497 209 493T188 486Q163 477 153 465T140 442Q137 429 153 433Q186 442 229 452Q222 438 219 427T212 409Q203 386 204 371T214 347Q218 342 222 342T229 348Q237 367 250 390T277 438Q282 430 288 423T299
409Q314 390 325 386T349 382Q357 383 360 387T358 397Q347 410 335 429T309 471Q330 476 349 480T379 487Q399 492 412 503T429 531Z" />
<glyph unicode="+" glyph-name="plus" horiz-adv-x="314" d="M250 314Q266 346 264 369T249 407Q235 422 226 406Q214 385 200 360T172 309Q147 307 122 306T74 306Q65 307 63 303T62 292Q67 269 84 255T136 239H138Q136 234 135 230T131 222Q117 187 124 167T143
139Q157 128 161 146Q170 169 184 194T213 245Q235 247 259 248T310 247Q320 246 321 249T321 260Q317 283 301 298T250 314Z" />
<glyph unicode="," glyph-name="comma" horiz-adv-x="239" d="M86 -16Q79 -22 72 -26T59 -32Q55 -34 55 -38T59 -44Q72 -49 86 -47T112 -37T134 -17T149 10Q158 37 149 57T122 78Q106 79 91 67T70 31Q66 14 71 2T86 -16Z" />
<glyph unicode="-" glyph-name="hyphen" horiz-adv-x="325" d="M118 199Q135 198 154 200T195 205T241 208T293 208Q307 207 304 222Q299 244 283 259T229 274Q212 274 190 273T145 269T99 266T55 266Q47 267 45 263T45 252Q50 229 66 215T118 199Z" />
<glyph unicode="." glyph-name="period" horiz-adv-x="223" d="M60 43Q52 25 56 7T75 -17Q90 -22 107 -12T132 18Q140 38 136 55T117 78Q102 83 86 73T60 43Z" />
<glyph unicode="/" glyph-name="slash" horiz-adv-x="396" d="M549 645Q520 617 476 571T381 470T277 356T178 241T97 139T47 65Q30 34 27 11T30 -28Q34 -37 39 -37T49 -30Q74 8 112 56T196 155T288 259T379 357T457 441T512 502Q553 550 565 583T573 639Q568
663 549 645Z" />
<glyph unicode="0" glyph-name="zero" horiz-adv-x="489" d="M400 239Q373 182 340 139T273 68T209 30T155 28Q131 37 119 69T108 148T126 250T175 362Q207 417 243 458T313 525T377 561T423 566Q442 559 452 531T462 458T445 358T400 239ZM441 588Q421 608 388
613T314 601Q288 590 258 568T197 514T138 443T89 359T54 265T42 164Q43 106 70 59T155 -7Q203 -22 248 -10T333 35T408 115T469 218Q494 269 509 327T524 437T504 530T441 588Z" />
<glyph unicode="1" glyph-name="one" horiz-adv-x="218" d="M199 479Q171 428 140 369T82 253T35 152T7 82Q-7 35 -4 10T12 -29Q23 -42 30 -25Q60 46 94 115T162 247T226 364T278 460Q307 514 307 545Q307 576 285 596Q272 608 259 596Q236 572 211 547T163 500Q160
497 158 493T158 485T170 480T199 479Z" />
<glyph unicode="2" glyph-name="two" horiz-adv-x="423" d="M84 52Q157 91 221 138T335 233T420 324T469 396Q500 460 493 501T458 571Q429 600 389 603T313 588Q283 573 258 548T212 494T177 438T156 393Q153 384 154 381T166 377Q199 375 221 392T266 444Q278
463 298 489T342 535T388 563T428 551Q445 532 438 500T405 426T337 338T240 244T123 150T-7 63Q-23 53 -26 46T-23 23Q-19 12 -13 2T2 -19Q10 -28 21 -30T52 -26Q74 -20 107 -13T175 1T244 10T299 13Q309 13 310 17T309 28Q301 51 279 64T220 76Q194 75 158 69T84
52Z" />
<glyph unicode="3" glyph-name="three" horiz-adv-x="429" d="M472 415Q514 470 512 513T478 590Q452 616 410 620T331 607Q313 598 292 581T251 543T214 499T185 453Q177 438 195 435Q226 429 252 445T303 491Q321 513 340 533T379 566T416 581T448 568Q464 551
455 520T413 452T322 381T185 322Q175 319 173 314T176 303Q195 279 216 276T258 275T298 280T333 273Q345 265 346 249T340 211T319 166T287 120Q267 94 242 75T192 44T143 32T100 43Q86 52 80 69T75 109T86 159T115 217Q124 231 107 231Q84 231 61 215T25 166Q19
152 17 133T18 92T36 49T76 11Q100 -5 133 -11T202 -12T276 15T345 75Q373 109 389 141T410 203T408 255T382 295Q373 303 361 307T336 315Q381 334 417 362T472 415Z" />
<glyph unicode="4" glyph-name="four" horiz-adv-x="426" d="M440 512Q404 459 366 394T295 264Q247 262 194 253T94 232Q127 267 169 304T256 377T349 447T440 512ZM371 252Q411 324 448 387T512 491Q519 503 523 510T528 523T527 535T520 549Q512 563 506 573T492
596Q484 608 473 607T453 599Q405 568 348 526T234 438T129 347T49 264Q36 249 45 232Q51 221 60 205T80 175Q87 167 95 166T114 167Q145 175 183 181T260 193Q230 129 214 87Q206 64 204 48T203 18T209 -4T220 -22Q224 -27 229 -27T237 -18Q256 30 283 86T343
200Q374 201 397 197Q411 194 408 209Q404 221 396 232T371 252Z" />
<glyph unicode="5" glyph-name="five" horiz-adv-x="415" d="M552 556Q566 556 562 569Q553 595 534 609T482 623Q462 623 436 618T378 608T312 599T242 596Q226 596 230 583Q232 575 236 568T247 553Q215 503 190 459T147 378Q127 335 132 309T150 268Q155 262
159 262T170 269Q186 291 205 307T244 332T281 342T312 337Q324 330 329 313T332 270T319 215T290 153Q272 123 248 97T197 53T146 31T102 37Q87 46 81 64T75 108T85 161T113 217Q117 223 115 227T107 231Q85 229 62 215T25 166Q18 148 16 126T19 82T38 40T79 6Q107
-9 142 -12T215 -3T287 37T350 111Q381 162 392 202T401 272T385 325T352 361Q330 378 293 383T219 374Q244 413 268 451T318 527Q322 527 325 527Q329 527 334 528Q382 534 434 545T552 556Z" />
<glyph unicode="6" glyph-name="six" horiz-adv-x="383" d="M466 528Q467 555 458 573T430 604Q414 615 389 619T334 614Q318 609 291 595T229 554T158 485T86 380Q50 316 33 257T16 149T35 64T86 8Q114 -8 145 -12T207 -6T268 32T324 105Q350 152 358 191T363
261T342 316T303 354Q268 376 231 374T160 351Q195 410 232 453T302 523T363 562T405 573Q411 572 411 564T409 542T401 513T389 480Q375 441 379 411T403 366Q417 356 424 371Q431 386 438 404T452 444T461 486T466 528ZM89 166Q102 216 127 250T179 303T233 327T274
326Q304 312 301 263T266 149Q250 116 229 91T187 52T146 33T111 38Q96 47 86 79T89 166Z" />
<glyph unicode="7" glyph-name="seven" horiz-adv-x="337" d="M383 536Q354 511 321 477T254 403T185 321T121 238T67 161T28 96Q5 53 3 25T11 -18Q20 -32 29 -18Q63 39 113 108T218 245T329 374T428 478Q444 493 448 501T447 524Q442 539 435 555T418 586Q407
601 398 602T372 602Q351 600 325 595T270 585T210 577T149 573Q134 573 138 561Q142 549 149 538T170 519T201 508T244 508Q274 512 308 520T383 536Z" />
<glyph unicode="8" glyph-name="eight" horiz-adv-x="388" d="M277 327Q340 373 404 412T519 480Q527 484 527 489Q527 494 520 498Q499 511 458 501Q461 538 447 561T407 596T349 606T283 591Q237 573 202 535T161 446Q158 424 165 398T185 345Q135 305 95 262T31
178Q17 154 10 126T6 72T25 22T73 -18Q95 -29 124 -31T182 -29T239 -10T287 23Q314 51 327 79T342 135T336 193T315 251Q306 271 296 290T277 327ZM396 477Q361 461 324 440T249 392Q238 422 238 446Q238 466 246 486T268 523T300 553T336 568Q353 571 365 565T384
545T394 514T396 477ZM216 279Q226 259 234 241T250 204Q260 175 261 152T256 111T240 78T216 50Q203 36 187 27T155 13T123 9T94 16Q68 29 67 58T82 122Q100 161 135 201T216 279Z" />
<glyph unicode="9" glyph-name="nine" horiz-adv-x="427" d="M361 369Q346 331 325 303T281 259T236 238T196 241Q181 248 174 265T167 308T177 363T204 428Q221 461 243 488T288 534T331 559T366 559Q376 553 382 538T389 499T384 442T361 369ZM308 220Q248 98
188 47T84 11Q58 20 47 54T50 156Q52 167 45 167Q39 167 31 162Q25 158 18 151T4 134T-6 109T-9 78Q-8 46 5 25T37 -8T78 -26T122 -31Q197 -29 258 26T376 196Q413 270 432 334T453 448T439 534T387 588Q322 620 257 587T141 462Q114 412 107 371T106 299T130 247T170
214Q207 196 242 199T308 220Z" />
<glyph unicode=":" glyph-name="colon" horiz-adv-x="255" d="M200 343Q191 323 195 306T215 283Q230 278 246 288T271 318Q279 338 275 354T256 377Q241 383 225 372T200 343ZM43 43Q34 24 39 6T58 -17Q73 -22 90 -12T115 18Q123 38 119 55T100 78Q86 83 70 73T43 43Z" />
<glyph unicode=";" glyph-name="semicolon" horiz-adv-x="264" d="M210 343Q201 323 205 306T225 283Q240 278 256 288T281 318Q289 338 284 355T266 377Q251 383 235 372T210 343ZM63 -16Q52 -27 37 -32Q32 -34 32 -38Q32 -42 37 -44Q50 -49 64 -47T90 -37T111
-17T126 10Q135 37 127 57T101 78Q85 79 70 67T48 31Q43 14 48 2T63 -16Z" />
<glyph unicode="&lt;" glyph-name="less" horiz-adv-x="288" d="M158 267Q185 279 212 292T256 319Q275 333 284 352T293 385Q293 393 289 396T277 394Q262 384 238 372T188 347T135 324T90 307Q77 302 74 297T73 280Q77 257 82 246T101 227Q129 213 162 196T222
159Q237 148 240 166Q242 181 237 198T215 229Q203 240 189 249T158 267Z" />
<glyph unicode="=" glyph-name="equal" horiz-adv-x="361" d="M173 290Q207 289 250 294T347 295Q357 294 359 298T360 309Q356 332 340 347T286 364Q269 365 247 364T202 361T156 358T112 357Q98 358 101 344Q106 321 122 306T173 290ZM126 182Q143 181 162 183T202
188T248 191T300 191Q314 190 311 205Q306 228 290 242T236 259Q219 260 198 258T153 254T106 250T63 250Q54 251 52 247T52 236Q57 213 73 199T126 182Z" />
<glyph unicode="&gt;" glyph-name="greater" horiz-adv-x="290" d="M192 276Q165 266 142 256T99 231Q82 218 71 200T61 169Q62 159 65 157T76 159Q111 179 154 195T235 226Q250 232 259 243T279 277Q290 299 270 307Q235 322 195 344T123 389Q108 401 105 381Q103
368 108 350T131 316Q141 307 157 297T192 276Z" />
<glyph unicode="?" glyph-name="question" horiz-adv-x="385" d="M194 528Q168 486 168 453T178 402Q183 394 187 394T197 405Q218 448 244 485T297 547T349 582T394 582Q406 575 410 561T413 530T406 495T393 461Q370 413 333 375T249 310Q193 278 165 251T123
193Q108 158 114 134T130 100Q143 86 148 103Q159 142 183 179T263 248Q321 279 370 317T448 415Q478 478 469 530T417 610Q390 628 359 629T298 620T241 585T194 528ZM130 52Q122 73 104 80T74 75Q62 62 60 42T69 2Q80 -17 97 -20T124 -12Q134 -1 136 15T130 52Z"
/>
<glyph unicode="@" glyph-name="at" horiz-adv-x="586" d="M326 165Q328 139 344 122T390 102Q434 99 477 137T550 247Q563 281 570 321T572 401T545 473T483 526Q462 548 428 558T346 557Q305 548 255 516T161 435T88 323T60 190Q60 163 66 137T86 87T121 46T173
15Q185 10 202 7T241 2T284 5T327 21Q351 35 358 53T365 83Q365 91 360 91T350 87Q335 72 314 61T268 43T220 38T175 48Q145 61 130 94T114 171Q114 215 130 265T181 363Q214 410 252 442T327 491T399 512T459 505Q483 494 498 469T517 410T516 336T491 253Q461
184 433 156T388 132Q377 135 378 157T393 208Q400 224 410 242T432 279T453 315T469 345Q483 376 481 399T469 433Q464 438 461 437T451 428Q444 420 438 410T425 389Q423 409 410 423T374 438Q343 438 299 409T206 309Q181 273 171 237T165 173T185 128T230 110Q258
110 282 126T326 165ZM385 396Q402 395 396 359T352 257Q321 204 292 172T239 140Q227 140 223 152T221 183T233 227T259 277Q275 304 293 326T329 363T361 387T385 396Z" />
<glyph unicode="A" glyph-name="A" horiz-adv-x="442" d="M313 157Q311 134 310 115T309 81Q310 38 320 18T346 -10Q361 -17 361 -1Q363 39 367 79T376 159Q401 158 419 153Q433 148 430 162Q427 178 418 191T385 213Q399 296 418 370T458 504Q465 524 465 541T458
577Q454 586 452 592T447 602T442 609T435 618Q421 637 399 619Q359 586 315 536T227 427T145 309T76 198Q64 199 53 200T31 203Q20 205 18 202T19 188Q21 183 28 173T52 154Q43 137 37 123T25 97Q9 55 10 31T20 -5Q24 -10 29 -10Q35 -10 38 -3Q68 62 114 141Q132
141 155 142T204 146T258 152T313 157ZM152 201Q180 246 211 290T273 376T335 456T395 526Q383 497 373 460T352 382T335 299T321 218Q286 217 242 211T152 201Z" />
<glyph unicode="B" glyph-name="B" horiz-adv-x="454" d="M213 511Q185 469 157 422T104 326T58 231T22 141Q13 117 11 101T9 74T14 55T24 39Q34 25 47 13T75 -7Q92 -15 111 -16T159 -12Q180 -8 204 0T251 20T295 47T334 81Q350 99 358 118T369 155T369 190T357
218Q337 246 309 260Q365 284 404 317T465 379Q491 412 502 453T500 546Q493 571 481 587T454 613T420 625T382 627Q357 625 328 617T270 598T211 579T155 568Q138 567 145 551Q150 539 166 526T213 511ZM167 288Q189 326 209 360T245 423Q264 458 270 481T275
521Q301 529 330 540T387 557T434 560T463 537Q472 511 455 476T399 404T300 337T167 288ZM244 238Q278 236 296 228T319 206T318 176T298 142Q282 122 259 105T210 75T156 52T105 40Q81 37 73 47T73 83Q84 121 102 160T140 238Q162 227 202 231Q213 233 223 234T244
238Z" />
<glyph unicode="C" glyph-name="C" horiz-adv-x="462" d="M388 206Q359 150 326 110T260 49T197 25T142 42Q124 57 114 90T105 169T122 267T171 376Q205 432 247 474T329 543T399 578T441 576Q450 567 449 553T441 520T427 482T412 442Q401 404 410 381T436 346Q445
340 450 343T458 352Q466 374 476 401T498 451Q520 497 507 539Q501 558 486 578T454 612Q430 633 395 632T319 615Q291 604 259 583T194 530T133 461T81 377T45 282T33 179Q35 117 60 73T119 11Q160 -11 217 -9T328 32Q344 43 362 62T393 104T412 153T409 204Q405
214 398 214Q392 214 388 206Z" />
<glyph unicode="D" glyph-name="D" horiz-adv-x="483" d="M210 501Q184 462 157 416T104 321T59 228T27 148Q19 124 16 108T13 81T18 61T30 42Q41 27 52 17T72 -1Q85 -12 99 -14T136 -8Q203 14 261 51T367 136T448 236T499 341T515 443T490 533Q462 582 425 605T339
621Q315 617 293 609T249 591T204 574T155 562Q145 560 144 556T145 543Q149 532 165 517T210 501ZM263 511Q289 520 315 532T365 550T408 555T441 531Q456 507 456 470T440 387T396 293T324 198T225 113T101 47Q58 31 77 92Q88 126 107 167T149 250T195 332T237
406Q256 439 261 465T263 511Z" />
<glyph unicode="E" glyph-name="E" horiz-adv-x="368" d="M218 525Q186 476 153 419T89 303T32 188T-12 86Q-20 66 -20 54Q-20 42 -13 29Q-8 19 -3 9T8 -8Q17 -19 26 -20T50 -18Q71 -12 100 -5T160 8T220 18T271 22Q280 22 281 26T281 37Q273 60 253 71T196 81Q181
80 162 78T121 71T80 61T41 50Q57 85 76 125T118 208Q160 219 211 227T303 236Q313 236 314 240T313 251Q305 274 287 286T231 296Q217 295 199 294T160 288Q197 355 232 417T298 524Q344 532 395 542T501 551Q510 549 512 553T512 564Q503 589 486 601T436 613Q415
613 385 608T322 598T253 590T187 588Q173 589 176 576Q181 560 190 547T218 525Z" />
<glyph unicode="F" glyph-name="F" horiz-adv-x="363" d="M214 526Q181 472 146 411T81 292T26 183T-9 99Q-25 52 -20 27T-1 -11Q10 -21 16 -7Q38 44 64 98T120 209Q141 214 165 219T214 229T262 235T304 237Q320 237 315 252Q308 275 289 288T231 300Q217 299
201 298T164 292Q201 360 235 418T295 520Q341 527 392 538T501 548Q511 548 513 552T513 563Q503 586 483 600T431 614Q410 614 381 610T319 600T252 591T186 589Q172 589 175 577Q179 562 188 548T214 526Z" />
<glyph unicode="G" glyph-name="G" horiz-adv-x="500" d="M412 192Q432 194 450 195T482 194Q492 192 494 197T492 210Q482 233 461 247T401 261Q378 261 353 257T300 248T244 239T186 234Q168 234 176 218Q187 194 210 180T272 170Q290 172 313 175T360 184Q337
139 306 104T241 47T178 23T127 39Q112 53 105 86T102 165T124 263T177 370Q213 424 258 466T345 535T421 571T467 568Q475 560 474 546T466 515T452 478T439 440Q429 402 438 380T465 345Q473 337 478 340T486 350Q494 372 505 399T525 446Q545 492 532 533Q526
553 514 571T480 604Q454 623 421 623T345 610Q317 601 283 580T213 527T146 456T88 370T47 273T32 168Q33 106 52 70T99 14Q120 -2 141 -9T184 -17T227 -15T266 -6Q285 -1 313 17T367 63T407 123T412 192Z" />
<glyph unicode="H" glyph-name="H" horiz-adv-x="488" d="M558 465Q589 521 594 557T589 616Q579 637 564 617Q549 597 526 560T477 475T423 376T371 276Q321 273 274 263T174 246Q207 309 236 361T288 456Q316 510 320 546T313 604Q303 623 289 605Q274 583 250
542T199 451T143 346T91 241Q81 241 71 242T49 244Q36 245 34 242T36 229Q39 223 46 214T70 197Q55 163 44 137T27 95Q14 49 17 25T32 -15Q37 -22 42 -21T50 -11Q72 40 95 88T141 184Q159 184 181 186T229 191T283 199T338 206Q323 175 312 150T296 110Q281 64
284 40T299 0Q309 -15 316 2Q341 59 366 112T418 214Q450 216 474 211Q487 208 485 222Q481 235 472 246T446 266Q478 325 506 374T558 465Z" />
<glyph unicode="I" glyph-name="I" horiz-adv-x="182" d="M269 616Q249 587 225 547T174 462T122 368T72 272T30 182T-2 105Q-10 82 -12 64T-14 33T-8 10T2 -6Q12 -18 18 -4Q45 57 78 122T144 249T209 366T263 462Q295 519 299 556T293 615Q288 624 282 625T269 616Z" />
<glyph unicode="J" glyph-name="J" horiz-adv-x="437" d="M66 229Q46 224 27 204T0 152Q-17 87 10 41T95 -16Q125 -21 156 -18T217 0T277 44T336 122Q357 156 383 207T436 311T486 412T521 490Q540 535 539 566T528 615Q516 635 504 616Q492 598 471 560T426 474T377
377T332 285Q307 233 281 182T226 90T167 29T102 15Q90 18 79 28T62 61T59 120T81 209Q86 222 82 226T66 229Z" />
<glyph unicode="K" glyph-name="K" horiz-adv-x="397" d="M125 210Q162 156 194 103T256 -7Q264 -21 274 -9Q285 5 288 32T274 102Q265 123 246 156T203 227Q254 263 303 302T394 378T469 449T519 505Q546 542 550 567T550 610Q543 626 531 612Q495 573 452 531T362
447T264 364T165 286Q192 337 216 380T260 459Q275 487 282 510T291 551T291 583T283 605Q272 624 259 607Q244 586 221 546T171 457T117 353T66 249T25 159T1 98Q-13 53 -9 29T6 -12Q15 -24 22 -9Q47 49 73 104T125 210Z" />
<glyph unicode="L" glyph-name="L" horiz-adv-x="353" d="M55 56Q83 116 113 174T172 285T226 383T272 465Q303 520 304 553T297 606Q287 627 273 608Q258 587 235 550T186 465T131 367T78 265T32 171T-1 96Q-9 76 -9 63Q-9 51 -4 38Q0 29 7 17T22 -5Q30 -17 39
-18T67 -15Q89 -9 118 -3T179 10T238 20T285 24Q295 24 296 28T295 39Q287 62 266 74T207 84Q178 82 138 75T55 56Z" />
<glyph unicode="M" glyph-name="M" horiz-adv-x="573" d="M269 435Q252 385 238 336T213 243T194 164T183 107Q175 60 185 32T221 -14Q232 -22 239 -7Q266 43 300 96T374 204T455 312T541 418Q517 371 494 323T451 232T417 152T397 94Q384 44 390 20T408 -15Q419
-25 424 -12Q443 42 469 105T526 231T587 355T644 464Q664 502 667 540T641 610Q625 626 612 607Q571 543 524 482T429 361T335 238T247 109Q276 215 302 302T353 462Q363 492 366 514T366 553T353 583T329 610Q311 625 297 604Q256 549 209 476T117 330T39 194T-10
95Q-27 50 -23 24T-8 -14Q3 -27 9 -12Q31 38 62 95T128 211T199 327T269 435Z" />
<glyph unicode="N" glyph-name="N" horiz-adv-x="459" d="M239 429Q232 376 228 325T222 230T220 149Q220 114 222 91Q226 43 237 21T271 -13Q285 -21 291 -7Q306 26 325 67T367 152T413 242T459 328T501 404T536 464Q553 492 562 514T574 553T575 584T567 609Q562
617 556 618T544 611Q516 567 482 509T412 386T344 256T286 132Q291 238 299 329T319 492Q323 518 323 536T320 569T308 595T285 616Q277 621 272 620T259 607Q229 557 192 491T119 356T50 220T0 102Q-15 61 -12 33T5 -10Q17 -23 22 -6Q37 39 62 94T117 208T179
323T239 429Z" />
<glyph unicode="O" glyph-name="O" horiz-adv-x="537" d="M476 597Q455 619 420 625T340 617Q298 602 246 562T148 463T71 332T40 179Q40 117 66 66T154 -8Q205 -27 253 -17T346 25T428 104T497 208Q525 260 542 319T561 434T542 533T476 597ZM424 236Q392 178
356 135T283 65T214 29T156 30Q130 41 118 75T109 158T131 264T186 377Q221 432 261 472T338 536T406 570T456 573Q477 565 487 535T495 460T475 357T424 236Z" />
<glyph unicode="P" glyph-name="P" horiz-adv-x="425" d="M206 509Q173 458 141 399T80 284T30 177T-1 93Q-12 52 -8 29T8 -6Q19 -17 24 -3Q76 121 117 201Q144 185 179 191Q228 200 272 218T354 260T420 312T468 369Q494 409 504 452T498 540Q489 566 477 582T449
608T416 620T379 623Q353 622 327 615T272 598T214 581T153 569Q135 568 143 551Q151 535 165 524T206 509ZM146 257Q169 299 189 334T230 405Q251 441 259 468T268 515Q293 522 322 533T378 550T426 555T455 531Q465 505 450 465T395 384T293 308T146 257Z" />
<glyph unicode="Q" glyph-name="Q" horiz-adv-x="543" d="M226 -16Q265 -14 302 4T373 52T436 122T490 207Q517 259 534 318T553 432T535 530T471 594Q449 617 414 623T333 614Q292 600 241 561T144 463T68 333T37 181Q37 132 53 90T107 19H100Q61 21 34 10T-8
-19Q-12 -24 -10 -28T1 -30Q50 -19 88 -28T160 -55T228 -94T302 -129Q320 -135 341 -137T382 -138T421 -126T451 -101Q456 -96 455 -92T441 -89Q415 -94 389 -89T336 -72T282 -46T226 -16ZM417 235Q386 178 350 135T279 66T210 30T152 32Q127 43 115 78T106 161T127
265T182 377Q217 432 256 472T333 536T401 570T450 572Q471 564 481 534T488 458T468 355T417 235Z" />
<glyph unicode="R" glyph-name="R" horiz-adv-x="458" d="M129 195Q164 156 204 106T294 -12Q302 -23 310 -10Q320 5 318 28T305 71Q289 103 264 138T210 208Q252 218 292 234T368 271T433 317T483 369Q512 407 521 451T514 541Q496 592 465 608T395 622Q370 621
344 614T289 598T230 581T169 568Q151 565 158 551Q167 534 181 524T222 511Q189 459 156 400T95 284T46 177T15 92Q4 51 8 28T24 -7Q34 -17 40 -3Q65 59 87 107T129 195ZM283 517Q308 524 337 535T393 552T441 555T471 531Q482 504 467 466T412 390T311 317T166
265Q186 302 205 335T245 404Q265 442 274 469T283 517Z" />
<glyph unicode="S" glyph-name="S" horiz-adv-x="444" d="M-33 134Q-40 132 -41 127T-35 111Q18 47 74 17T182 -20T275 -12T340 29Q373 67 376 100T351 153Q330 168 299 185T238 222T189 264T170 311Q171 342 190 374T238 437T301 492T367 534T422 557T455 554Q464
545 457 526T436 485T407 439T383 398Q367 363 373 339T393 301Q401 293 406 295T415 304Q420 313 428 327T445 356T464 386T484 415Q490 423 496 434T508 458T515 485T513 515Q508 536 495 559T463 599Q438 622 404 619T334 601Q301 587 259 559T179 492T116 407T90
309Q90 270 115 239T175 183T245 137T301 99Q312 90 314 76T303 47Q282 29 241 29Q217 29 193 37T146 59T103 86T68 113Q48 130 20 136T-33 134Z" />
<glyph unicode="T" glyph-name="T" horiz-adv-x="403" d="M276 525Q241 472 205 408T138 283T84 169T52 85Q42 49 48 27T65 -6Q76 -17 81 -3Q140 135 199 241T304 429Q324 466 331 491T337 535Q381 543 425 548T507 550Q517 549 519 554T519 565Q508 594 482 604T424
616Q403 617 364 612T280 600T190 590T112 588Q96 590 101 575Q109 547 139 532T215 518Q229 519 244 520T276 525Z" />
<glyph unicode="U" glyph-name="U" horiz-adv-x="452" d="M76 -12Q128 -33 189 -12T305 83Q330 118 363 174T430 289T490 401T531 483Q551 527 552 559T544 607Q539 615 533 616T520 608Q499 575 470 525T411 420T351 310T301 216Q275 165 247 125T192 57T139
19T90 17Q68 25 65 52T70 117Q79 157 101 203T148 296T200 387T245 467Q274 523 275 555T264 606Q259 614 253 615T240 607Q206 555 170 496T101 378T43 265T8 168Q-2 127 0 97T13 45T41 9T76 -12Z" />
<glyph unicode="V" glyph-name="V" horiz-adv-x="403" d="M100 78Q119 193 141 294T179 468Q192 526 189 557T169 609Q156 625 147 603Q133 567 118 509T89 383T62 247T44 119Q38 66 49 36T89 -15Q100 -23 106 -21T117 -10Q161 58 210 127T307 259T396 374T464
462Q501 511 512 544T519 604Q517 615 511 616T496 609Q474 586 443 549T375 466T301 369T226 267T157 167T100 78Z" />
<glyph unicode="W" glyph-name="W" horiz-adv-x="630" d="M395 406Q383 371 371 334T347 260T327 190T312 128Q301 75 309 44T343 -10Q353 -19 360 -17T373 -5Q418 65 467 133T562 262T648 374T715 461Q753 512 765 546T773 606Q771 617 765 618T749 610Q727 586
697 551T633 472T563 379T491 281T423 183T366 94Q395 203 424 293T478 455Q487 483 491 503T495 537T490 563T478 585Q472 594 465 593T453 586Q414 539 368 479T274 353T183 222T103 99Q135 206 169 299T228 461Q250 519 250 550T238 603Q226 623 213 599Q195
564 172 507T125 383T81 249T47 123Q35 71 41 40T74 -15Q84 -23 91 -21T104 -10Q136 41 172 95T247 204T323 310T395 406Z" />
<glyph unicode="X" glyph-name="X" horiz-adv-x="399" d="M280 387Q273 432 267 468T255 527Q241 576 219 594T178 616Q162 619 165 602Q182 536 193 464T215 320Q182 285 152 252T96 190T51 137T22 97Q-1 61 -4 35T0 -8Q2 -14 6 -15T16 -10Q57 47 113 110T229
235Q240 170 253 113Q262 76 273 52T298 13T326 -7T356 -15Q364 -16 367 -11T365 3Q352 25 341 58T321 131T305 214T292 300Q341 349 385 392T465 468Q488 490 502 510T523 548T532 580T531 606Q529 616 523 618T508 613Q467 575 407 515T280 387Z" />
<glyph unicode="Y" glyph-name="Y" horiz-adv-x="379" d="M174 197Q220 247 259 287T333 360T398 421T455 476Q499 519 510 552T516 607Q511 625 495 612Q465 586 426 549T344 469T259 384T182 301Q185 358 190 406T197 497Q200 551 190 576T162 613Q155 618 149
616T141 602Q134 566 129 521T121 427T115 328T112 232Q91 190 75 152T50 87Q38 48 43 23T60 -13Q73 -25 79 -10Q95 35 118 87T174 197Z" />
<glyph unicode="Z" glyph-name="Z" horiz-adv-x="441" d="M54 50Q99 103 156 163T275 281T399 393T518 486Q536 499 541 508T541 532Q535 549 527 566T508 597Q498 610 488 613T461 614Q440 612 412 608T353 598T289 590T229 587Q213 587 218 572Q226 547 250
532T324 521Q340 523 360 526T401 534T443 543T481 550Q444 525 400 490T310 413T218 328T132 240T58 158T4 89Q-8 71 -8 61T-1 35Q2 27 10 15T23 -6Q31 -20 42 -20Q53 -20 73 -15Q99 -8 130 -1T193 13T255 22T309 26Q326 26 319 41Q310 63 289 75T231 84Q212 82
189 79T143 71T96 61T54 50Z" />
<glyph unicode="[" glyph-name="bracketleft" horiz-adv-x="316" d="M364 616Q388 624 416 628T468 635Q477 636 480 641T479 652Q467 668 455 679Q442 690 414 689Q399 688 379 686T344 678Q333 674 325 669T306 649Q273 605 240 551T174 438T112 320T57 205T11
102T-21 19Q-28 -1 -28 -11Q-28 -21 -20 -33Q-14 -43 -9 -50T4 -65Q12 -74 19 -76T39 -74Q58 -66 85 -60T130 -51Q140 -50 141 -45T139 -33Q128 -14 113 -5T68 -1Q53 -4 33 -9Q62 64 102 148T186 315T276 477T364 616Z" />
<glyph unicode="\" glyph-name="backslash" horiz-adv-x="355" d="M157 633Q160 592 166 539T181 429T200 312T220 201T239 106T257 39Q271 -2 288 -19T322 -39Q337 -42 334 -26Q321 27 308 100T282 248T259 393T242 508Q233 572 216 603T177 646Q169 651 163
648T157 633Z" />
<glyph unicode="]" glyph-name="bracketright" horiz-adv-x="319" d="M390 619Q350 560 305 482T216 318T131 149T58 -8Q29 -12 0 -17T-50 -30Q-59 -33 -60 -39T-56 -51Q-44 -63 -27 -75Q-14 -83 -3 -83Q7 -83 20 -81Q34 -79 48 -76T78 -71Q92 -69 98 -64T110
-44Q146 37 189 123T277 293T368 455T459 601Q465 610 465 617Q465 624 460 635Q455 644 451 653T442 671Q437 679 432 682T413 685Q387 685 356 679T295 668Q286 666 282 661T285 646Q295 632 309 620T340 610Q352 612 364 614T390 619Z" />
<glyph unicode="^" glyph-name="asciicircum" horiz-adv-x="267" d="M191 500Q195 479 199 461T208 428Q216 399 234 391T264 384Q272 385 273 387T273 399Q268 417 264 439T255 484T248 527T244 560Q240 594 219 609Q212 614 208 614T197 607Q183 590 167 570T135
529T106 490T84 457Q75 442 73 430T71 407T76 390T84 380Q94 370 102 384Q119 412 143 441T191 500Z" />
<glyph unicode="_" glyph-name="underscore" horiz-adv-x="366" d="M433 -72H1Q-32 -72 -52 -84T-78 -111Q-82 -125 -67 -125H365Q399 -125 419 -113T445 -86Q450 -72 433 -72Z" />
<glyph unicode="`" glyph-name="grave" horiz-adv-x="77" d="M12 756Q7 758 3 756T0 745Q8 715 13 687T27 642Q35 624 45 614T65 602Q70 600 74 602T76 613Q72 636 70 661T61 707Q54 729 40 740T12 756Z" />
<glyph unicode="a" glyph-name="a" horiz-adv-x="407" d="M324 325Q326 354 311 375T263 397Q225 397 170 360T53 234Q22 189 10 145T1 65T26 8T82 -14Q118 -14 150 9T207 64Q207 29 227 7T289 -18Q310 -19 331 -10T371 14T407 48T433 89Q443 110 444 127T442
151Q439 158 435 158T426 150Q413 124 397 100T363 56T328 24T295 11Q282 10 276 17T269 38T273 69T287 108Q296 128 309 151T335 197T362 242T383 281Q401 319 398 348T384 392Q373 405 360 386Q352 374 343 359T324 325ZM237 170Q218 137 199 109T162 61T126
30T93 19Q78 19 73 34T72 74T88 130T120 194Q141 227 164 255T208 304T249 335T280 345Q302 343 294 298T237 170Z" />
<glyph unicode="b" glyph-name="b" horiz-adv-x="352" d="M312 151Q333 197 342 240T348 316T327 370T278 391Q258 391 236 380T192 349Q204 370 217 392T242 435T265 473T281 501Q312 558 315 593T307 649Q295 669 282 650Q265 626 239 582T182 484T120 371T63
259T17 164T-10 101Q-25 55 -21 31T-5 -9Q5 -22 11 -6Q18 10 25 27T40 60Q54 27 79 8T145 -11Q189 -11 233 30T312 151ZM263 350Q272 349 277 338T282 304T272 249T241 174Q219 130 200 102T163 59T131 38T102 36Q82 41 72 61T60 103Q74 132 89 161T122 218T156
268T190 310Q213 333 230 342T263 350Z" />
<glyph unicode="c" glyph-name="c" horiz-adv-x="311" d="M247 386Q228 397 201 393T145 370T86 317T32 236Q8 188 4 143T12 62T57 5T137 -15Q165 -15 193 -6T247 18T294 52T330 94Q343 114 346 131T348 154Q345 162 340 162T330 155Q315 131 294 106T248 60T193
26T133 13Q111 13 97 28T78 69T80 132T108 210Q125 244 146 272T187 320T223 347T245 351Q250 347 248 338T241 316T229 289T218 261Q207 227 215 205T242 174Q252 169 256 171T263 182Q270 202 280 222T297 261T307 297T302 331Q285 363 247 386Z" />
<glyph unicode="d" glyph-name="d" horiz-adv-x="401" d="M277 108Q296 148 322 196T375 294T427 388T471 465Q487 493 495 515T507 556T509 589T502 616Q494 638 478 616Q464 597 444 564T402 491T356 408T312 326Q313 354 298 374T252 394Q233 394 209 385T158
357T102 307T43 233Q12 188 0 144T-9 65T16 8T72 -14Q107 -14 139 9T196 63Q196 28 216 7T277 -17Q298 -18 319 -10T359 14T395 48T421 88Q431 108 431 125T429 150Q426 156 421 156Q417 156 413 149Q400 123 384 99T350 55T316 24T283 11Q270 10 264 17T258 37T262
68T277 108ZM268 343Q290 342 279 297T224 168Q189 99 151 59T83 19Q68 19 63 34T61 74T77 130T109 193Q130 226 153 253T197 301T237 332T268 343Z" />
<glyph unicode="e" glyph-name="e" horiz-adv-x="320" d="M92 171Q118 150 143 143T193 141T238 162T278 200Q294 219 303 239T316 278T319 312T310 336Q298 353 284 365T251 388Q232 399 205 395T148 371T88 318T34 236Q10 188 6 142T15 61T60 5T140 -16Q198
-15 251 15T336 92Q350 112 353 130T353 154Q350 161 345 161Q340 161 336 155Q320 130 299 105T252 58T197 24T137 13Q97 15 83 58T92 171ZM101 193Q103 197 105 201T109 210Q127 246 149 274T194 321T234 347T260 348Q265 344 264 333T257 307T242 276T220 243Q209
229 196 215T168 192T136 182T101 193Z" />
<glyph unicode="f" glyph-name="f" horiz-adv-x="245" d="M106 184Q126 223 148 263T193 340T235 411T270 470Q302 525 307 559T304 620Q301 629 293 629T279 621Q251 579 215 522T141 397T64 256T-6 111T-60 -28T-90 -151Q-94 -183 -91 -206T-82 -247T-65 -276T-46
-296Q-23 -316 -3 -312T43 -276Q61 -254 78 -223T109 -155T134 -81T151 -4Q173 4 193 18T230 47T256 76T271 100Q278 117 281 133T281 160Q277 171 271 171T260 161Q240 122 213 88T156 34Q157 43 157 51T158 68Q159 118 147 146T106 184ZM101 18Q87 21 80 36T74
75Q74 84 76 97T80 122T86 144T94 155Q99 157 105 138T110 90Q108 54 101 18ZM34 29Q52 -7 95 -11Q83 -62 64 -111T26 -196T-10 -250T-35 -257Q-44 -246 -42 -219T-30 -153T-4 -68T34 29Z" />
<glyph unicode="g" glyph-name="g" horiz-adv-x="401" d="M415 90Q428 110 432 125T435 148Q433 156 428 156Q423 156 418 150Q388 110 345 71T239 0Q255 36 273 75T311 152T346 222T374 278Q393 315 390 344T376 388Q371 395 364 394T351 382Q343 369 335 356T318
327Q319 353 304 373T259 393Q240 393 216 384T164 356T108 306T49 232Q19 187 7 143T-2 65T23 9T78 -13Q106 -13 131 1T179 37Q171 20 165 3T150 -32Q113 -46 79 -65T17 -107T-32 -158T-64 -221Q-78 -266 -69 -294T-44 -345Q-30 -365 -16 -368T14 -366Q44 -354
72 -321T127 -242T176 -144T221 -41Q284 -18 335 13T415 90ZM231 168Q212 135 193 108T156 60T122 29T90 18Q75 18 70 33T67 73T83 129T115 193Q136 226 159 253T203 301T243 332T274 342Q296 340 288 296T231 168ZM133 -73Q109 -130 83 -177T35 -256T-3 -302T-24
-310Q-30 -301 -25 -274T-1 -211T51 -139T133 -73Z" />
<glyph unicode="h" glyph-name="h" horiz-adv-x="377" d="M399 91Q410 114 411 129T409 153Q406 159 400 159Q394 159 391 152Q379 128 364 104T331 60T297 28T264 14Q250 13 242 21T232 43T234 76T247 117Q256 136 268 159T294 204T319 248T340 286Q350 305 350
323Q350 342 343 356T325 380T301 391Q291 392 277 387T246 372T213 349T181 321Q197 346 214 373T248 425T278 472T301 509Q330 557 334 593T329 651Q325 660 319 660T305 652Q285 627 256 583T193 486T126 375T63 264T12 168T-19 99Q-35 54 -31 31T-15 -7Q-5
-19 2 -3Q20 43 46 92T99 187Q121 223 150 252T206 303T254 334T280 342Q286 339 275 319T246 270T208 205T176 132Q153 66 170 25T251 -16Q273 -16 295 -8T336 16T372 50T399 91Z" />
<glyph unicode="i" glyph-name="i" horiz-adv-x="201" d="M232 459Q222 479 204 486T174 481Q162 468 160 448T169 407Q180 387 197 384T225 392Q235 403 238 421T232 459ZM69 -15Q90 -15 111 -8T153 13T190 46T218 89Q237 128 225 151Q222 157 218 157T209 151Q198
125 183 101T150 57T114 26T79 14Q55 12 53 38T69 109Q77 128 88 149T111 192T134 234T153 271Q171 309 168 338T154 380Q143 392 130 374Q116 354 98 324T62 261T27 193T2 131Q-9 100 -10 74T-4 28T22 -3T69 -15Z" />
<glyph unicode="j" glyph-name="j" horiz-adv-x="178" d="M230 461Q221 482 203 489T173 483Q162 470 160 451T168 411Q179 391 196 388T224 396Q233 407 236 424T230 461ZM9 -19Q25 18 46 60T87 143T124 217T150 273Q167 311 166 340T153 383Q141 396 129 377Q109
347 83 299T29 193T-28 72T-82 -53Q-119 -67 -153 -86T-216 -128T-266 -180T-299 -243Q-307 -265 -307 -283Q-307 -301 -303 -316T-291 -343T-276 -367Q-262 -388 -248 -389T-219 -386Q-189 -375 -161 -342T-106 -262T-55 -164T-9 -61Q59 -32 114 4T199 93Q210
113 213 128T214 152Q212 160 207 160T198 153Q166 106 122 62T9 -19ZM-99 -95Q-123 -150 -148 -196T-196 -275T-234 -323T-256 -332Q-263 -323 -258 -296T-233 -233T-181 -160T-99 -95Z" />
<glyph unicode="k" glyph-name="k" horiz-adv-x="367" d="M182 347Q192 365 204 386T228 430T251 472T272 507Q304 562 308 594T301 650Q291 669 276 649Q254 619 226 574T169 476T112 368T59 262T18 172T-7 108Q-21 62 -19 37T-6 -2Q-1 -8 4 -7T12 0Q41 69 65
121T111 212T157 279T209 329Q249 360 279 368T317 363Q323 353 314 334T282 292T224 247T142 209Q128 204 125 200T121 182Q120 131 130 95T157 36T198 1T248 -11Q278 -11 301 -1T343 25T374 59T397 94Q408 113 410 129T409 155Q405 164 400 164T389 154Q378 131
363 107T330 62T296 30T263 19Q234 22 215 61T193 162Q241 176 273 197T332 243Q360 270 363 300T353 360Q338 392 319 403T271 404Q251 397 229 384T182 347Z" />
<glyph unicode="l" glyph-name="l" horiz-adv-x="230" d="M98 200Q131 222 167 254T235 326T293 410T330 501Q349 574 307 611Q287 630 264 606Q226 566 187 514T114 401T52 276T11 145Q-6 64 18 27T94 -13Q124 -14 152 -1T202 30T240 68T261 98Q278 136 271 160Q268
171 261 171T249 160Q234 131 215 104T174 57T132 25T92 15Q75 16 69 31T63 72T74 130T98 200ZM116 243Q126 267 140 291Q166 339 191 382T239 457T276 507T296 522Q301 519 293 491T262 421T204 333T116 243Z" />
<glyph unicode="m" glyph-name="m" horiz-adv-x="565" d="M158 284Q169 314 170 342T159 391Q149 408 138 391Q114 356 90 314T44 231T6 153T-19 93Q-32 55 -29 30T-9 -10Q3 -21 10 -5Q40 66 76 132T157 246Q205 299 239 320T282 338Q289 335 276 311T242 253T197
180T161 110Q150 83 147 62T144 26T151 0T163 -16Q176 -31 186 -11Q218 60 257 129T360 262Q384 286 403 301T435 324T456 334T467 335Q473 333 462 313T431 264T391 201T356 135Q342 104 341 77T350 29T383 -4T438 -16Q460 -16 482 -8T524 16T560 50T588 91Q596
108 598 128T597 154Q593 159 588 159Q583 159 579 152Q564 126 549 102T517 58T485 27T454 15Q440 15 431 22T419 44T418 77T432 117Q441 136 454 157T480 199T505 241T524 278Q531 297 533 316T533 351T522 377T500 388Q488 388 470 381T432 360T391 330T352
295Q357 311 356 328T350 360T336 383T313 393Q299 393 280 384T239 358T196 323T158 284Z" />
<glyph unicode="n" glyph-name="n" horiz-adv-x="384" d="M160 294Q168 321 168 345Q168 370 157 389Q147 406 136 389Q112 354 87 313T40 231T1 154T-24 94Q-36 56 -33 31T-14 -9Q-2 -21 5 -5Q21 30 37 65T72 133T109 195T151 249Q175 275 197 293T237 323T267
339T283 343Q290 340 280 321T251 271T213 205T180 131Q158 66 175 24T256 -18Q278 -18 300 -9T341 14T377 48T404 89Q415 111 416 127T413 152Q404 166 396 151Q382 125 366 101T334 57T300 26T268 13Q254 12 247 20T237 42T238 75T252 116Q261 135 273 158T299
204T325 248T345 286Q354 305 354 323Q354 342 348 356T330 380T306 392Q294 394 276 386T238 363T197 331T160 294Z" />
<glyph unicode="o" glyph-name="o" horiz-adv-x="332" d="M342 215Q345 219 345 222T339 225Q333 225 329 224T319 223Q320 229 320 234Q320 240 321 246Q323 273 320 289T309 316T292 335T274 356Q259 376 244 383T206 390Q161 386 119 349T47 260Q30 230 20
199T6 139T8 84T31 35Q61 -4 95 -11T157 -9Q185 0 210 22T256 74T292 136T315 202Q332 204 342 215ZM256 242Q244 253 237 273T234 313Q238 335 249 337T264 316Q268 290 256 242ZM249 215Q243 197 234 177T214 135Q196 100 176 77T137 40T102 25T76 31Q66 39 64
59T66 105T80 162T107 221Q123 250 143 274T184 315Q185 287 199 263T230 227Q240 219 249 215Z" />
<glyph unicode="p" glyph-name="p" horiz-adv-x="391" d="M209 4Q268 40 314 141Q328 172 338 203T351 263T349 318T325 363Q309 380 291 384T253 384T214 368T179 342Q180 367 173 387Q169 396 163 397T149 388Q133 367 110 329T60 243T6 144T-45 44T-86 -45T-112
-110Q-126 -156 -124 -180T-111 -220Q-106 -227 -102 -226T-94 -218Q-58 -134 -21 -59T52 81Q54 62 62 45T86 14Q112 -10 145 -18T227 -23Q281 -19 328 6T405 84Q418 107 419 125T418 150Q416 158 410 159T399 150Q387 124 370 99T329 54T276 20T209 4ZM108 181Q117
197 125 210T142 238Q160 267 179 290T217 328T250 350T275 353Q284 348 287 332T287 291T274 238T250 178Q232 142 212 112T173 61T136 33T106 35Q85 52 87 93T108 181Z" />
<glyph unicode="q" glyph-name="q" horiz-adv-x="373" d="M154 10Q130 -39 112 -84T84 -161Q78 -182 77 -197T77 -222T83 -240T93 -253Q104 -265 111 -249Q141 -178 176 -106T247 33T315 157T370 255Q395 300 398 332T392 383Q386 391 381 392T367 386Q360 379
349 362T324 322Q326 350 311 372T263 394Q225 394 169 357T53 233Q22 187 10 143T1 63T26 7T82 -15Q101 -15 119 -8T154 10ZM237 168Q199 101 162 59T93 16Q78 16 73 31T71 72T87 129T120 193Q141 226 164 254T208 302T249 333T280 343Q302 341 294 296T237 168Z"
/>
<glyph unicode="r" glyph-name="r" horiz-adv-x="330" d="M165 316Q174 340 180 361T187 400T184 426T167 436Q153 436 133 417T99 372T82 320T100 280Q86 260 68 234T31 181T-2 130T-27 89Q-47 51 -47 18Q-47 -15 -25 -38Q-18 -45 -14 -43T-8 -33Q-1 1 18 43T61
126T108 206T145 270Q168 270 198 278T262 308Q247 291 230 270T196 224T165 175T142 125Q133 97 133 72T143 26T172 -6T218 -19Q238 -20 258 -13T296 7T328 39T352 79Q360 99 360 116T357 141Q350 154 343 140Q331 113 317 89T286 46T255 18T224 8Q202 9 195 35T199
100Q211 139 243 183T309 266Q320 278 322 292T320 319T309 344T295 364Q286 374 268 362Q211 322 165 316Z" />
<glyph unicode="s" glyph-name="s" horiz-adv-x="302" d="M39 164Q38 170 38 176Q38 182 37 188Q35 214 16 198Q3 187 -4 171T-12 135T-10 96T3 59Q16 36 32 21T68 -2T108 -14T151 -16Q205 -14 252 14T328 94Q341 117 343 135T342 160Q339 166 333 167T323 160Q304
119 272 80T189 21Q216 39 224 68T234 126Q235 152 233 179T228 237T224 298T225 365Q228 370 230 374T236 384Q246 401 249 410T244 428Q237 435 222 432T190 413Q174 399 166 382T154 336Q132 298 101 252T39 164ZM152 272Q153 242 155 201T157 122T149 55T125
21Q113 17 102 22T80 40T62 70T48 110Q77 151 103 191T152 272Z" />
<glyph unicode="t" glyph-name="t" horiz-adv-x="214" d="M125 389Q93 329 64 272T19 176Q1 133 1 98T11 38T44 0T90 -15Q120 -16 147 -3T195 30T230 68T249 99Q257 116 260 130T259 156Q256 167 250 166T238 156Q224 128 207 102T172 55T135 23T99 12Q83 13 74
24T61 54T62 97T79 149Q93 180 110 213T146 279T181 342T213 397Q232 400 253 401T291 401Q314 401 303 420Q297 430 284 440T241 450Q259 489 260 515T254 563Q250 572 244 572T230 563Q217 546 197 514T154 439Q134 437 113 436T71 435Q60 436 56 431T60 415Q66
407 82 398T125 389Z" />
<glyph unicode="u" glyph-name="u" horiz-adv-x="404" d="M196 81Q190 37 210 10T279 -18Q301 -18 323 -9T365 14T401 48T429 89Q440 110 440 128T438 152Q435 159 430 159T420 151Q405 125 389 101T355 57T321 26T288 13Q261 11 258 39T274 110Q283 129 295 152T321
198T348 242T369 281Q387 319 384 349T370 393Q359 407 345 387Q321 355 295 302T221 173Q201 140 181 112T141 62T105 30T73 19Q56 21 54 45T68 106Q84 142 101 175T146 253Q199 337 165 388Q159 395 152 395Q145 395 139 387Q90 318 54 250T1 132Q-7 107 -10
82T-8 37T11 3T52 -13Q73 -15 93 -7T131 14T166 45T196 81Z" />
<glyph unicode="v" glyph-name="v" horiz-adv-x="300" d="M68 29Q73 70 79 102T92 162T106 216T120 271Q131 317 126 346T96 397Q83 408 76 389Q63 350 52 306T33 218T18 137T11 72Q9 32 20 13T61 -20Q69 -24 73 -20T81 -10Q117 47 151 94T216 179T273 247T318
301Q342 331 351 351T359 388Q356 408 340 392Q314 366 279 323T205 229T131 126T68 29Z" />
<glyph unicode="w" glyph-name="w" horiz-adv-x="490" d="M403 174Q383 139 362 110T322 59T285 27T254 15Q232 16 231 40T249 107Q258 127 271 150T298 197T325 242T346 281Q364 319 362 349T348 393Q336 405 323 387Q298 355 272 303T197 173Q177 140 160 112T126
63T96 30T66 18Q49 17 48 40T62 101Q77 137 97 173T144 253Q172 298 176 330T162 388Q157 395 150 395Q144 395 138 387Q87 318 52 250T-1 132Q-11 104 -13 79T-11 35T9 3T46 -11Q82 -13 113 11T168 67Q166 35 183 10T232 -16Q257 -17 283 -4T335 35T386 95T438
173Q461 212 476 241T501 292T516 331T525 363Q528 379 524 389T510 397Q502 395 487 382T455 341T424 273T403 174Z" />
<glyph unicode="x" glyph-name="x" horiz-adv-x="391" d="M174 180Q146 157 122 137T80 97Q52 67 37 43T20 -7Q19 -13 21 -15T27 -18Q31 -18 35 -16T43 -10Q73 28 108 62T181 127Q183 118 183 111T185 98Q194 35 216 10T278 -16Q316 -16 351 14T410 89Q421 109
422 126T419 152Q417 158 412 158T404 150Q393 127 380 104T353 61T324 29T295 18Q286 19 278 31T263 73Q259 93 255 121T246 182Q281 211 309 234T355 277Q381 306 395 329T409 378Q409 390 403 390Q397 390 389 380Q357 339 319 303T239 233Q236 257 233 279T225
319Q218 352 207 368T172 389Q153 392 134 386T97 366T66 335T45 299Q40 285 38 271T39 245Q41 239 46 239T55 247Q66 272 78 291T102 324T123 343T137 350Q141 350 145 334T155 293T165 238T174 180Z" />
<glyph unicode="y" glyph-name="y" horiz-adv-x="375" d="M386 97Q399 117 402 132T404 155Q402 163 397 163T388 157Q358 115 314 75T211 3Q227 39 245 78T282 155T316 224T344 278Q363 316 361 346T348 390Q336 401 323 383Q310 364 296 339T266 285T234 226T202
168Q183 135 164 108T128 60T94 30T62 20Q45 22 44 45T57 106Q71 141 89 174T134 252Q162 297 166 329T153 385Q148 393 141 393Q134 393 128 385Q104 351 83 317T44 249T14 186T-8 132Q-17 107 -20 82T-18 37T1 3T43 -13Q73 -15 101 1T152 42Q144 24 137 6T121
-30Q46 -59 -12 -105T-93 -219Q-108 -263 -98 -292T-73 -343Q-59 -364 -45 -366T-16 -364Q15 -352 44 -319T99 -239T149 -140T194 -37Q257 -11 307 19T386 97ZM104 -72Q81 -127 56 -173T8 -252T-31 -300T-53 -309Q-60 -300 -55 -272T-30 -209T22 -137T104 -72Z"
/>
<glyph unicode="z" glyph-name="z" horiz-adv-x="353" d="M205 3Q141 -23 85 -63T0 -167Q-9 -188 -9 -205T-6 -237T7 -262T23 -284Q42 -307 58 -307T89 -298Q113 -285 142 -253T196 -179T239 -91T256 -5Q272 2 289 11T324 33T355 59T378 90Q389 110 392 128T392
152Q389 159 383 159T374 152Q350 106 320 74T254 23Q247 54 228 72Q216 83 200 88T165 92Q214 123 253 158T313 226Q336 266 336 299T317 359Q298 386 275 393T218 395Q182 390 143 371T73 322Q45 295 36 265T32 214Q34 208 38 207T47 211Q76 247 113 277T185
326T249 351T287 344Q297 331 290 308T260 255T196 192T100 126Q74 111 60 88T57 32Q59 26 64 26T74 31Q93 44 113 52T150 62T180 63T199 54Q212 37 205 3ZM196 -30Q183 -68 160 -110T112 -186T68 -239T40 -250Q33 -241 37 -217T61 -160T113 -93T196 -30Z" />
<glyph unicode="{" glyph-name="braceleft" horiz-adv-x="193" d="M139 310Q170 312 192 329T234 382Q244 401 259 432T291 496T328 556T366 598Q374 603 374 608Q374 614 365 616Q353 618 339 618Q325 618 311 614T282 599T257 572Q243 552 229 522T201 462T174
405T151 363Q139 346 126 339T99 331Q88 330 88 323T92 307Q101 299 102 288T96 256Q90 241 79 224T56 188T31 147T9 102Q-6 64 4 36T36 -7Q44 -12 48 -9T51 5Q47 23 56 48T81 100T112 152T139 198Q158 235 158 261T139 310Z" />
<glyph unicode="|" glyph-name="bar" horiz-adv-x="224" d="M309 644Q287 610 259 562T200 459T139 346T84 236T39 142T11 75Q-3 35 -1 8T13 -32Q24 -45 30 -30Q44 5 65 50T112 144T163 244T215 341T263 427T300 493Q332 550 337 585T333 643Q329 652 323 653T309 644Z" />
<glyph unicode="}" glyph-name="braceright" horiz-adv-x="306" d="M224 295Q168 289 131 222Q120 203 105 172T73 108T38 48T2 10Q-6 5 -7 0T2 -8Q30 -13 59 -5T111 37Q124 57 138 85T165 143T190 197T213 237Q234 265 259 271Q271 274 275 280T273 293Q265 301
263 313T268 346Q274 361 286 380T314 423T343 472T367 525Q378 557 368 580T331 615Q310 623 316 603Q320 586 310 560T285 505T252 448T224 401Q207 368 207 340Q207 313 224 295Z" />
<glyph unicode="~" glyph-name="asciitilde" horiz-adv-x="231" d="M0 670Q-5 654 10 661Q29 670 49 667T90 658T132 647T176 647Q213 653 229 692Q233 702 229 705T217 705Q195 695 175 696T136 703T99 713T61 718Q37 716 21 701T0 670Z" />
</font>
</defs>
</svg>
